<svg id="plant5_SVG" xmlns="http://www.w3.org/2000/svg" viewBox="0 0 117.5 142.37">
  <defs>
    <style>

      .cls-1{fill:#231f20;}
      .cls-1,
      .cls-2
      {stroke:#231f20;stroke-miterlimit:10;}
      .cls-2{fill:none;}

      #plant5_leaves
      {
      	cursor: pointer;
      }

      #plant5_leaves:hover
      {
      	fill: #73b36d !important;
      }

      #plant5_pot
      {
      	cursor: pointer;
      }

      #plant5_pot:hover
      {
      	fill: #58a199 !important;
      }

    </style>
  </defs>

  <path id="plant5_pot" class="cls-1" d="M52.19,100.35l1.05,2.37c-5.35,0-8.12.5-8.3,1.49q-.21,1.1,3.82,3a110.26,110.26,0,0,0,16.91,1.06,110.82,110.82,0,0,0,11.57-.79c10.29-4.22-5.27-4.75-5.27-4.75l.52-2.37c10.29.26,10.82,3.69,10.82,3.69.53.79,0,10.28,0,10.28l-2.38.53-4,24.79c-13.72,5-27.69,0-27.69,0-4.22-20-2.91-25.32-3.7-25.58a10.38,10.38,0,0,0-2.9,0V103C44,100.08,52.19,100.35,52.19,100.35Z"/>
  <path id="plant5_leaves" class="cls-2" d="M56.65,108S50.08,85.31,26.08,87.69A48.44,48.44,0,0,0,1,102.19a20.68,20.68,0,0,1,2.44-5.44s-1.29-1.38,1.88-1.28c0,0,.1-2.48,1.68-1.88,0,0,.3-2.18,3.76-2.67,0,0-.89-1.29,2.47-1,0,0-3-3,2-1.78,0,0-.89-3.07,3.26-2.08,0,0-.79-2.08,3.37-1.09a3,3,0,0,1,3.06-1.58s5.34.79,3.37-1.09c0,0-.6-1.68,2.27,0l2,.79s.3-2.07,2.37-.39l3,.49s1.38-2.37,2.67.5c0,0,2.87.49,3-.6l1.18.1s2.78-4.45-15.86-8.4h-11S7.91,79,7,77.86c0,0,4.75-2.17,4.55-3.06,0,0-.39-2,1.88-1.29a1.22,1.22,0,0,1,1.78-.59s1.29.69,1.19-.79c0,0-.4-1.49,3.16,0,0,0-1.68-4,1.39-.66,0,0,5.34.75,5.83-2.71,0,0,2.68.4,2,1.49,0,0,3.2-2.38,5.08,1.08,0,0,.5-1.78,2.38-.19,0,0,2.07,1.18,2.57-.6,0,0,3.46,2.28,4.25,1.29l3.17,4.84s.59-2.47,2.17.6c0,0,2,2.08,2.28-.3,0,0,1,4.35,3,4.06,0,0,4.06,4.74,4.35,7.36v7.47s-3.08-3.36.88,2.67l-.48,5-.2,4.54M45.4,83.2s.29,3.27,3.16,1.58c0,0,1.09,2.87,2.87,2.18,0,0,.2,3.46,2.37,2.08,0,0-.1,3,2.08,1.38,0,0-.59,3.46,2.17,1m0-3c1.59-.15,0-3.7,0-3.7,1.77.17,1.39-5.25,1.39-5.25-1.48,1.69-1.88-4-1.88-4-1.48,1.19-2.37-6-2.37-6-1.59,3.36-3.46-5.25-3.46-5.25.39-4-1.78-3.36-1.78-3.36.19-4.15-1.39-4.25-1.39-4.25-.4-1.58-6-9.59-6-9.59A6.9,6.9,0,0,0,40,42.36c-.89.69-4-3.66-4-3.66-1.29.89-3.36-4.55-3.36-4.55-2.08,1-4.06-3.46-4.06-3.46.1,3.06-5.44-1.39-5.44-1.39C49.05,58.28,50.74,77,50.74,77m8.7,2.47c-.79-5.93,1-4.94,1-4.94l.3-6.63c.89-2.77-2.68-13.15-2.68-13.15.82-4.16-7.18-36.52-10.43-49.36C46.8,2.12,46.29.13,46.29.13M60.87,66.69l1.44-.4c-1.78-6.82.29-3.16.29-3.16l-.19-5.94c1.48,2.67,2.07-.59,2.07-.59l-.34-3.75L64,51.16c.49-3-1.68-1.39-1.68-1.39a6.62,6.62,0,0,0-1.44-4.45c1.33-3.06-1.4-6-1.4-6,1.62-1.29.66-4.15.66-4.15-1-.7-.66-5.34-.66-5.34-1.94.69-2.7-1.69-2.7-1.69.79-2-1.68-6-1.68-6,.69-3.66-1.51-4.25-1.51-4.25V12.09c-2.4,4.06-2.65-2-2.65-2,.4-9.69-2.67-5-2.67-5m17.9,103.18C65.47,104.51,65,83.8,65,83.8c0-1.39,0-2.85.12-4.36.71-12.74,4.43-28.88,4.43-28.88,5.44-34.21,9.2-38.07,9.2-38.07s2.57-4.16-1.09,0l-2.48,3.76s-.19,5-1.68,3.56c0,0-.1,4.35-1,5.24,0,0-1.68-4.25-1,3.76,0,0-1.49.59-.7,4.45,0,0-.19,2.07-2.27.69v5.44s-.79,3.46-1.49-1.29l1,6.33s1,4.85-2.37-2.67a15.64,15.64,0,0,0,.69,5.54s-.89,8.31-1.88,4.65m1.23,51.33c-.27-3.6,7.38-17.21,7.38-17.21-.6-5.93,1.58-2.87,1.58-2.87.2-2.27,4-3.76,4-3.76C78.13,74,99,52,99,52c1.58-.49,7-5.74,7-5.74-2.47-1.48-7.42,4.26-7.42,4.26a10.48,10.48,0,0,0-4.74,3.06c-1.09-3.76-4.16,4.16-4.16,4.16.7-5.15-3.36,2.47-3.36,2.47-3,0-5.24,6.53-5.24,6.53.3-7.52-3.66,4-3.66,4-2.87-8.5-6.33,15.33-6.33,15.33a76.71,76.71,0,0,1,2.68-14.49c5.47-19.51,16.8-35.16,16.8-35.16,5.9-3.53,9.89-12.76,9.89-12.76s-7.71,5.42-11.57,11.66c0,0-2.87-.28-2.67,4,0,0-1.58,1.58-2.08,0,0,0-1-1.48-.62,2.67,0,0-2.14-1.68-2,2,0,0-1.58,2.47-1.48,3.36,0,0-1.68-1.28-1.78,1.78,0,0-.69,1.68-1.88,1.48,0,0-1.78,1.69-.89,3.37A8.19,8.19,0,0,0,74,59.44s-2.29-2.15-1.94,2.5c0,0-.93,2.87-1.33,2.67,0,0-.69,4.94-1.87,3.06,0,0-.3,4.16-1.19,3.57,0,0,.49,4.54-1.19,3.06,0,0,.63,5-1.36,5.14M72,108S69.4,98,79.6,84.69c0,0,5.75-9.5,13.47-3.47,0,0,6.42,5,7.22,4.55,0,0,4.64,6.83,5.73,5.74,0,0,2.87,5.24,4.16,5L117,106.84s0-6.92-7.52-14.54c0,0,3.07.59-3.46-3.91,0,0,2.87-.14-1.28-2.72,0,0-3.07-6.09-6.83-6.45,0,0-1.55-3.34-3.54-2s-.41-.3-.41-.3,3.16-1.38-4.85-.89c0,0-1.29.2-.69,1.29,0,0-5.46-1.15-9.79,2.17M58.05,91c-.79-1.29-8.9-9-8.9-9m3.37,11.47s5,10.58,5.93,10m4.35-23c-1.28,1.49,0,27.54,0,27.54M58.05,84.69c-.21-.55-5.53-13.45-5.53-13.45m16,5.14L67,95.07M79.3,76.82l.81-5.19C79,72.32,74.18,82,74.18,82m0,7.31S67.65,100,68.93,108M59.47,47s1.3,8.71,2.76,9.5"/>
</svg>
