<svg id="plant10_SVG" xmlns="http://www.w3.org/2000/svg" viewBox="0 0 107.81 94.91">
  <defs>
    <style>

      .cls-1{fill:#231f20;}
      .cls-1,
      .cls-2{stroke:#231f20;stroke-miterlimit:10;}
      .cls-2{fill:none;}

      .cls-2
      {
      	cursor: pointer;
      }

      .cls-2:hover
      {
      	fill: #73b36d !important;
      }

      #plant10_pot
      {
      	cursor: pointer;
      }

      #plant10_pot:hover
      {
      	fill: #807c79 !important;
      }

    </style>
  </defs>
  <path id="plant10_pot" class="cls-1" d="M41.43,64.87A21.62,21.62,0,0,0,45,58.94c5.34,3.16,21.37.59,21.37.59,11.47-2.57-1.19-4.94-1.19-4.94l1.58-2.18c5.93.4,7.22,4.35,7.22,4.35l-.1,8.51c.79,3.36-3.56,2.17-3.56,2.17L67.94,91.77c-15,5.94-29.28,0-29.28,0L36.29,75.55C40.25,75.16,41.43,64.87,41.43,64.87ZM42.82,54l-2.77-2.17.59.59c-.59-.59-6.33,2-6.33,2-4.15,2-1.58,4.94-1.58,4.94s1-2.37,2-1.78,3.56-.79,3.56-.79C35.1,55,42.82,54,42.82,54Zm15.62-.59H60l1-1.58H58.44Z"/>
  <path class="cls-2" d="M59.62,36.7V35.31M56.56,38.2l.3-2.8M38.27,56.76C39.86,60.12,45,58.94,45,58.94L42.82,54,45,51.82l2.77,5.93V50A33,33,0,0,0,51,46.24a10.13,10.13,0,0,0,1.95-4.12s6.33-6.92,0-8.7a5,5,0,0,1-6.33-1.58s-3.21-1.33-5.72-.18A4.71,4.71,0,0,0,38.27,35s-4,7.32,2.77,11.87l5.37,5m-6.36,0c-6-2.34-15.23,1.58-15.23,1.58a38.83,38.83,0,0,1,3.1-7.08c4.2-7.27,8.37-6.77,8.37-6.77C33,33.39,19.48,32,19.48,32s4.36-6.53,12.46-5.74c0,0,4.55-.79,5.44,1.38l3.47,4M26.4,49.33c-.79-1.5-6.92-1.07-6.92-1.07a13.93,13.93,0,0,1-8.31,4.35c-3.76-.79-10.29,3-10.29,3s4.35-13.25,18.6-12.46l8.44,3.21M50.65,34l.28-5.29s-8.31,1-12.27-7.91c0,0-2.77-10.68-4.15-12.26,0,0,4.55,3,13.85,3.16,0,0,3.16,1.78,3.56,3.17,0,0-4.36,14.44,4.94,20.57,0,0,14.84,1,18.59-12.27,0,0,7.12-2.57,0-3.16,0,0-8.11-.58-8.9,2,0,0-1.78-1.58-2.37,0,0,0-8.31,6.12-7.62,12.25M51.92,14.83c4.74-4.35,7.81-13.65,7.81-13.65s9,14.63,7.41,20M49.34,47.27v5.14L47.76,50m6.85-10.26c6.65-6.5,17.28-3.19,17.28-3.19-.59-.2-13.45,11.47-13.45,11.47C48.36,49.64,51,46.24,51,46.24m1,2v12.2m3.8-12-.59,3.93-1-3.93m4.35-.42-.77,12.36m1.95-.13s-.19-15.22,10.3-18.18c0,0,.4-.59,1.09-1.44,1.65-2,5-5.56,8.6-6.26,0,0,11.87-.75,14.64,2.29,0,0,5.93,3.5,10.28,3.08,0,0,7.32.34-1.78,2.33,0,0-12.18-.65-15.23,0-1,.21-15-1.79-15.63,0,0,0-4.82-2.16-10.62,14.65,0,0,6.07-10.48,8.65-9.49,0,0,7.31-2.57,12.65,0,0,0,.51-.15,1.34-.32,2.5-.52,7.91-1.27,11.32,1.11,0,0,10.88,3.76,9.89,5.34,0,0-7.91-2-9.89-1.58,0,0-5.93-.83-6.52-2.49,0,0,6.52,6.05,6.13,10a7.42,7.42,0,0,1,1.38,7.12s-4-3.75-8.3-2.57c0,0-13.26-5.88-18-15.4,0,0-7,6.36-6.75,11.47M88.71,49.33l-4.16-1.27h6.33M36.29,75.55l-3.56-2.14c-4.57-9,0-14.08,0-14.08m5.34,7.12,2.78-6m-4.56-1.13h1.78m-1.78,4.12,1.09-1.55m-2.87,4.55,3.56-3m-1.78,4.78.82-1.78M71.89,48.06s15.83,4.75,18,11.27m-15-7.51L77,54.36m7.51,5h2.08m-5.74-9.49-2.27-1.78m10.09,6.3-1-1.27m1-13.31s4-1.16,4.94,0m-4.94-3c-.7,2-6.73,3-6.73,3m-2.22-.52L85.34,36M76,39.26l-4.06,2.85m-20,5.16,7.7-5.16m3-2.59L64,38.29m0,2.4L62.6,42.11m-3-8.69.11-3.56m2.87,1.33s1.87-3.89,3.95-1.33m0-2.37,1.78-1.33M73.92,22l-3.41,2.36M61.27,12.26v-3m-7.18,7.12s3.56,6.44,2.77,9.75m-5.93,2.51c-4.37-6.28-4.52-10.88-4.52-10.88m0,24.32a33.22,33.22,0,0,1,2.93-8.29m-14.83-4s2.87,4.19,2.32,6.94M17.3,46.28s10.09.92,9.59,2m-13.55.43c-1.18,1-3.95-.43-4.55-.43"/>
</svg>
