<svg id="plant9_SVG" xmlns="http://www.w3.org/2000/svg" viewBox="0 0 51.09 80.84">
  <defs>
    <style>

      .cls-1{fill:#231f20;}
      .cls-1,
      .cls-2{stroke:#231f20;stroke-miterlimit:10;}
      .cls-2{fill:none;}

      #plant9_flowers
      {
      	cursor: pointer;
      }

      #plant9_flowers:hover
      {
      	fill: #73b36d !important;
      }

      #plant9_pot
      {
      	cursor: pointer;
      }

      #plant9_pot:hover
      {
      	fill: #7d7164 !important;
      }

    </style>
  </defs>
  <path id="plant9_pot" class="cls-1" d="M9.64,43.68c10.69,4.15,32.84-.59,32.84-.59.79-1,3.16,0,3.16,0-.59,33.62-3.16,33.82-3.16,33.82-14.24,7.71-32.24,0-32.24,0C6.08,66.23,5.49,43.09,5.49,43.09,5.43,41.52,9.64,43.68,9.64,43.68Z"/>
  <path id="plant9_flowers" class="cls-2" d="M12.61,44.21S2.59,39.13,1,29.9a40.51,40.51,0,0,1-.4-8.77L6,31.88s4,4.48,4.22,4.28,3.89,5,3.89,5a10.89,10.89,0,0,1,2.5,3.1v.66m7,0-9-12.14-3.31-7.24-1-2.12a38.63,38.63,0,0,1-1.25-5L7.53,10.45,6,22.84S7.14,29.5,7.73,29.7l2.51,6.46m11.14,5.67.2-1a55,55,0,0,0,.72-5.87l.27-18.86-.93-7.58s-1.45-3.63-1.25-3.16-1.58,5.6-1.58,5.6c.33.86-1,6.4-1,6.4l-.73,7.78v5.14l-.46,4.68m1.91-24.46L16.3,6.1,12,3.81l.5,1.1.47.35c.46.36,1.81,4.79,1.81,4.79l2.41,6.46.13,1.13.38.47m8.32,8.69V17.24l-1.12-5Q23.74,9,22.53,5.81l-.75,1.87m3.36,37.19v-.4l.92-7,1.25-3.95,2.91-5.87.89-2.44,6.09-9.4,2-2.73a23.26,23.26,0,0,0-6.66,5l-4.41,6-2.05,3.1-3,6.33-.73,1.38m8.81-15.3s.56.86-.3-.56,1.58-9.13,1.58-9.13l1.78-4.15,2.37-4.09c-6.59,4.55-8.43,8.77-8.43,8.77l-1.72,5.67-.33.46m7.09,5.49,1,3.81M32.06,30l5.34-8.83L39.84,17l.27-5.48V6.36L38.92,2.73a32.81,32.81,0,0,0-4.22,12.4V16m-1,17.5L31.11,30a17.09,17.09,0,0,0-2,8.18s.27,5.93,1.39,6.73m-4.91-.53,5.54-4,3.06-3.23,1.58-2.7,2-3.89c.24-1.74.49-3.47.73-5.21a66.57,66.57,0,0,1-4.35,7.32c-1.22,1.77-2.44,3.37-3.63,4.81l-4.42,4.09M39.18,28.65s2.61-7,5.45-9.6l.35-.29v-.65a9.58,9.58,0,0,1,2.31-4.3l.73-2.5,1.12-4.49V2.73C44.79,9.59,45,10.12,45,10.12c-1.12.46-2,3-2,3l-2.83,3.56m-4,27,7.32-8.24,5.74-11.15,1.45-4.42V13.55l-5.72,5.3M37.93,31.61l-1.39,5.81-.46,5.86m3.1-15L37.93,32m6.23,10.51s3.07-2.27,3.79-5.43a81.31,81.31,0,0,0,1.19-8.77l-5,6.52M32.44,29.35l-1,1.54M.72,27.66A2.54,2.54,0,0,0,2.85,26.4M1.4,30s2.24.07,2.51-1.35M2.19,33.68s4-.09,3.83-1.8M3.1,35.42s3.64-.32,4.3-1.74M5.71,38.85s3.68-.78,4.11-3m-2.9,4.17S11,38.72,11,37.37M9.37,42.13,12,40.32m-.68,2.2,1.71-1.61M6.61,20.67A2,2,0,0,0,9,20.4M6.61,22.65s3.05.6,3.21,0m3.42,7c.63.41,3.39-2,3.39-2l-1.81-4.55S14,18.69,14,17.44s-.4-7-.4-7l-1.71,4.09-.6,4.08L11,21.13l.13,4c-.4,1.53-4.38,1.7-4.38,1.7M7.4,29s4.8-.53,4.64-1.85M9,32.47s3.71-.53,4.1-2m-3,4.12s3.82-.63,4.08-2.08m-2,5.47s4.32-.09,4.41-2M13.8,40.07s3.72-1.85,3.69-2.7m-1.85,4.46s3.94-.77,3.75-2.69M17.89,43s2.5-.36,2.63-1.73M13.8,18.11A14.2,14.2,0,0,0,12,17.64m-.33,1.41,2.09.82m-2.44,3.05s2.92,1,3.06-.14m-2.71,1.78s3.23.8,3.58-.26m3.52-13.39,1.71.05m-1.71,2.59h1.71m-6.1-5.67L15.64,7m-.35,2.84,1.8-1.19m-.9,5.14,2.62-1.61m-.59,5.74s3.32.52,3.82.24m-4.46,1.76s3.44,1.18,4.2,0m-4.2,5.48c3.93.13,4.46-.5,4.46-.5m-4.46,3.2s4.09.79,4.46,0M23,15h1m-1,1.84,2.18-.53m-2.65,5.41h3.08M23,23.55s3.37.9,3.43.42M23,30l.48.2m-6.35,2.62s4.11.68,4.69-.31m-4.29,2.37s3.83,1.72,4.29,1.32m.52,1.78,2.38,1.2M22,40.32s3,2,3.49,1.21m-2-7.85s1.85,2.68,2.9,2.22M24,32s.78,1,1.31,1m.19-4s1.32,1.25,1.92,1.18m.92-1.51c.2-.27-2.31-1-2.31-1m3.69-3.36a6,6,0,0,0-1.64-.2m2.63-.55s-.72-.84-1-.9m2.69-3.6,1.22,1.08m-7.27-2.5s2.7,1.46,3.86.8m-3.86,1.16s2.23.93,2.7.54m-1.64-6.58s2.44,1.32,3.29,1m-2.63-4.15s2.8,2.81,3.51,2.16M29.86,7.76l2.53,2.16m.66-1.78L31.62,7m4.46,2s2.64.77,3.56,0m-4,1.47s3.53.83,4,.51m-2,5.62,2-.23M37,18.6h1.63m-5.18,9.06c.13-.23-2.72-1.26-2.72-1.26m0,1.26s1.19,1.13,1.7,1M28.38,32s.83,1.25,1.37.46m-2.44,1.06.8.65m-1.19,2,2,.27m-2.44,1,1,.49m4.17-1,.33.45m.49-1.84.71,1m1.49-4.61.72.9m-2.31-4.12,2,1.77m2.65-4-1.57-2.1m2.38-3.63a3.79,3.79,0,0,0,3.23,2m-2.51-3.6s2.82,2.34,3.5,1.89m2.62-3.83c.51-.39-3.61-2.11-3.61-2.11M43,13.74A2.33,2.33,0,0,0,45.64,15m0-5.08A3.78,3.78,0,0,0,48,11.31M46.3,8.14l1.19,1.18m.26,7.26s1.65,1.57,2.38,1.05m-3.83.57a3.81,3.81,0,0,0,3.83,1.39m-6,2.13s1.22,2,4.78,2.11m-5.6-.28a6.94,6.94,0,0,0,4.88,1.82m-8.11,1.76A6.86,6.86,0,0,0,46.3,29m-6.66.09s2.69,2.87,5.7,2.38m-5.7,2.4,4.41.33m-6.4.66,1.53,1.06m6.6-2.9a3,3,0,0,0,2.44,1.18m-2.88,0s.63,2,2.41,1.77m-5.07.54,1.37,2m-2.2-.84.23.84m-2.44,1.53s1.26,2.75,2,2.88m-3-1.44.54,1m-9.43-.81a10.38,10.38,0,0,0,6.33-1.22M29.86,43c-.11.4,6.09-.3,6.22-.82"/>
</svg>
