<svg id="plant6_SVG" xmlns="http://www.w3.org/2000/svg" viewBox="0 0 49.17 59.17">
  <defs>
    <style>

      .cls-1{fill:#231f20;}
      .cls-1,
      .cls-2{stroke:#231f20;stroke-miterlimit:10;}
      .cls-2{fill:none;}

      #plant6_leaves
      {
      	cursor: pointer;
      }

      #plant6_leaves:hover
      {
      	fill: #73b36d !important;
      }

      #plant6_pot
      {
      	cursor: pointer;
      }

      #plant6_pot:hover
      {
      	fill: #8656b3 !important;
      }

    </style>
  </defs>

  <path id="plant6_pot" class="cls-1" d="M42.72,20.38a3.24,3.24,0,0,1,2.47-.1A6.87,6.87,0,0,1,47.07,23h0l1.58,29.28c-22.15,14.5-48,0-48,0V23S-.4,21.11,3,20.58l3.16,2.11S2,22.16,7.51,24.53c0,0,31.38,4,35.08-2.63,0,0,.23-1-1.06-.43-2.05.84-3.07,1.27-3.06,1.28s.76-.27,2.28-.86A4.34,4.34,0,0,1,42.72,20.38Z"/>
  <path id="plant6_leaves" class="cls-2" d="M8.5,24.14v-.89s6.89-1,6.71,2M8.5,21.57c0-1.19-6.23-3.37-6.23-3.37L3,20.58m7.84,1.48S9,20.53,8,20.85m-.43-.3c0-.93-2.15-3.83-2.15-3.83a4.24,4.24,0,0,0-.54-3.36c-.69.3-3.26-1.48-3.26-1.48C1.48,12.67,4.23,19,4.23,19M5.38,8.51c.7-1.17-3.11-3.16-3.11-3.16s.79,7.12,2.57,8C4.84,13.36,4.44,10.09,5.38,8.51ZM9,5.35l.09,4.82m3.38-5.61c0-1.88-4-2-4-2m21.26,21-.39-2.75C32.93,16.58,32,9.94,32,9.94l.1.23c-.1-.23-4.55-3.44-4.55-3.44-1,1.49-5.34,3.44-5.34,3.44.19-1.71-6.73-5.61-6.73-5.61-2.77,2.67-3.06,4.25-3.06,4.25m9.85,14.74c-1-.89,1.32-1.49,1.32-1.49.5-1-2-3.86-2-3.86-.59.5-6.44-2-6.44-2l-2.36-3.44-.39-4c-.8-.1-4-5.34-4-5.34V5.84c-.1-.69-3-1.68-3-1.68-.66,1-.09,4.35-.09,4.35a9,9,0,0,1,3.7,1.66c3.87,2.83,5.75,8,5.75,8-2.57,3.27,3,7.07,3,7.07l2.27-1.09.79,1.09s3.66-2.92,4.85,0m3.66-4.47-1.88-1.61s-3.27,3.56-3.86,2.87m7.22,3.21c-1.58-3.51-3,0-3,0m6.73-1.09c-1.29-2.53-2,1.09-2,1.09M30.2,24.18s.35-1.74,4.41-2c0,0,5.74-6.12,3.56-10.27,0,0-.2-3.47-1.68.89,0,0-3.44,5.11-5.38,5m11.61,2.59S44,18,43.65,16.23a2,2,0,0,0-.34-.79S36.57,21.27,36,20.38m7.62-4.15c4-2.19,2.83-11.67,2.83-11.67s-6.26,8.75-7.82,7.71c0,0,2.38-5.44.8-10.09L36.88,5.35l-3.26,4s0,4.65-1.46,5m4.72-9C37.17,4,36,.6,36,.6s-4.59,1.19-5.18,2.87c0,0,1,4.15.1,5.73m-.1-5.73c-.17-.83-2.37,1.09-2.37,1.09-.61-3.27-2.77-4-2.77-4-.79.2-4.06,4-4.06,4-.19-1-3.06-3-3.06-3L16.12,4.9M28.56,7.44s1.9-1.1-2.85-3.87L21.53,8.82m2.38-3s-1.42-1.76-2.38-.47c0,0-2.15-.53-2.75-1.88s-1.17,2.35-1.17,2.35M15.52,4.56C13.35,2.28,14,6.2,14,6.2m1.43-.85c-.19,7.51,2.18,9.49,2.18,9.49M6.92,9.35S6.79,16,10.48,18.2M16.12,18s1.77,4.71,2.66,4.71m7.72.43-.79-1.52m2.17-4.19s.6-7.71,0-9.62m-7.61-1,.49-.91M35.5,1.49c-1.39-.2-4.38,3.41-4.38,3.41M36,2.75c-.65-.22-1.42,4.48-1.42,4.48M36,18.2a4.85,4.85,0,0,0,1.35-2.76m1.28.79s3.66-.7,7.12-8M22.25,10.17c-2.48,2.34-1.41,8-1.41,8"/>
</svg>
