<svg id="plant3_SVG" xmlns="http://www.w3.org/2000/svg" viewBox="0 0 595.28 841.89">
  <defs>
    <style>

      .cls-1 { fill: #231f20; }
      .cls-1,
      .cls-2 { stroke: #231f20; stroke-miterlimit: 10; }
      .cls-2 { fill: none; }

      #plant3_leaves
      {
      	cursor: pointer;
      }

      #plant3_leaves:hover
      {
      	fill: #73b36d !important;
      }

      #plant3_pot_
      {
      	cursor: pointer;
      }

      #plant3_pot_:hover
      {
      	fill: #fafc58 !important;
      }

    </style>
  </defs>
  <path id="plant3_pot_" data-name="plant3_pot\" class="cls-1" d="M279.79,169.19c-15.63,1.58-8.7,7.32-8.7,7.32,1.86.62,4,1.23,6.33,1.76a62.24,62.24,0,0,0,13.74,1.52,63,63,0,0,0,9.4-.71c3.31.1,6.15-1.61,7.1-4.15a6.24,6.24,0,0,0-.06-4.2,22.9,22.9,0,0,0-9-1.94l.6-3c14.44-1,13.84,7.92,13.84,7.92V213.1c-26.7,13.65-47.53,0-47.53,0l.26-38.77c-2.57-8.11,15-8.51,15-8.51Z"/>
  <path id="plant3_leaves" class="cls-2" d="M298.4,169.66c1.59-.9,1.06,9.57,1.06,9.57m-16.64,0c-.92-3.4.53-15.58.53-15.58-.89-1.19-1.78-10.88-1.78-10.88.79,0,.87-4.65.87-4.65-1.31-1.58-.57-6.63-.57-6.63,1.28-1.48,0-4.15,0-4.15-3-.89-5.34-5.54-5.34-5.54-2-1.68-.3-10.38-.3-10.38,1-.69-.49-2.87-.49-2.87,1.48-1.39.19-5.74.19-5.74-1,0-2.77-3.46-2.77-3.46-.59-1.78-1.68,0-1.68,0a1.88,1.88,0,0,1-1.88,1s-2,1.29-1,4.15c0,0-1.78,7.22-.8,8.81,0,0-1.58.59-.29,3.36,0,0-.1,3.26,1,3.66,0,0-.7,6.53-.1,6.72,0,0,.39,4.16,2.37,4.16,0,0,1.29,4.55,2.47,4.45,0,0,.1,2.08,1,2,0,0,2.87.19.79,2.27,0,0,6.14,4.65,4.45,8.41,0,0,1.78,2.47,1.59,3.36,0,0-.7,9-1.68,8.7,0,0-1.59.3-.5,2.28,0,0-2.08.59-.49,2.08a2.81,2.81,0,0,0-.25,3.7m3.71-41.09.39-3.86c-1.48.4-.79-1.48-.79-1.48-1.68-.4.1-2,.1-2-1.68-1-.3-3.06-.3-3.06-1.08-.7.7-2.58.7-2.58-.79-2.57,1.38-3.06,1.38-3.06-.79-1.39,1-1.48,1-1.48-.49-3,3.66-2.68,3.66-2.68,1.29-2,2.27,0,2.27,0s5.84,4.75,3.07,13.75c0,0,1.78,15-.79,20.47,0,0-3.07,16.72.1,21.17l-.2,7.23m-6.23,0s1.09-5.55,0-7.53V162.07s1.29-1.78,0-2.28c0,0-1.9-1,.29-2.08,0,0,1.3-2.57-.39-3.36,0,0,1.19-11.17.1-11.77,0,0-.89-2.67,0-2.87,0,0,.35-4.55-.77-4.84,0,0-1.26-3.46,0-4.06,0,0-.81-13.25,2.55-13.65m-6.43,35.61s-2-5.34-3.56-5.54c0,0-3.67-2.87-2.82-3.76,0,0-6.87-8.5-6.18-10.18m12.56,11.76s-9.3-8.8-8.21-14.63m11-10.58s-2.16-3.57.55-6.43a15.79,15.79,0,0,0-.68-7s-.88-8.4.81-9.19c0,0-.52-3,1.43-2.08,0,0,1.35-8,5.6-8,0,0,5.84,1.68,3.07,10.58,0,0,3.37,7.22.75,12.56,0,0-2.33,9.4.14,14.05,0,0-.46,13,.86,14.14,0,0,1.61,20-4.22,34.12m-4.16-52.91s2.33,1.48,1.81,2.27m.67,1.58v6.33m-20.18-10.58c-1-.69,1.58-5.73,1.58-5.73m19.68-24.43,1.5-1.14m-5.06,28.34V114.4c-1.38-1.29,0-8.61,0-8.61.1-3.06.94-9.89.94-9.89a2.59,2.59,0,0,1,.87-2c-.47-1.28,1.16-3.46,1.16-3.46m5.46,48.76s3.15-2.47,2.06-4.25c0,0,1.38-2.67,2-2.57,0,0,.79-3.17,0-3.66l.35-6.43s1.23-.3.83-2.67a1.37,1.37,0,0,1,1.25,0,1,1,0,0,1,.43.63c.4,1.29-.79-3.07,1.09-2.37,0,0,3.36-1.59,2.87.39,0,0,4.25-.29,4.25,2.52,0,0,1.09,5.2-1.58,12.52,0,0,2.18,11.76-4.05,17.3,0,0-5.64,5.54-6.24,4.95,0,0-2.57,8.5-1,10.28,0,0-.28,1.24-.61,3q-.17.81-.33,1.74c-.67,3.66-1.33,8.22-.6,8.7m-3.14-27.85c-.91.3-.41,5-.41,5-.64.1-.54,3.36-.54,3.36,3.09.1-2.33,5.15-2.33,5.15m16.56-46.59v1c-.72,1,.79,3.56.79,3.56-2.57.69-1.47,2.57-1.47,2.57v4.45c.2,2.08-2.5,6.63-2.5,6.63,1.94.79,0,3.07,0,3.07-2.51.29-2,1.88-2,1.88,2.47-.7.89,4.55.89,4.55-.89-.7-3.27,9.59-3.27,9.59m3.37-4.65,1.06-1.78m2.7-4.55c.89.79-1.39,2.87-1.39,2.87"/>
</svg>
