<svg id="plant1_SVG" xmlns="http://www.w3.org/2000/svg" viewBox="0 0 69.34 137.64">
  <defs>
    <style>

  .cls-1 { fill: #231f20; }
  .cls-1,
  .cls-2 { stroke: #231f20; stroke-miterlimit: 10; }
  .cls-2 { fill: none; }

  #plant1_leaves
  {
  	cursor: pointer;
  }

  #plant1_leaves:hover
  {
  	fill: #73b36d !important;
  }

  #plant_1_pot
  {
  	cursor: pointer;
  }

  #plant_1_pot:hover
  {
  	fill: #c46156 !important;
  }

    </style>
  </defs>

<path id="plant_1_pot" class="cls-1" d="M11,91.79c4,3.43,29.81.79,29.81.79,5.27.13,5.8-3.3,5.8-3.3.92-.52,4.22,1.59,4.22,1.59,1.58,2.63,0,43,0,43-27.43,7.38-41.94,0-41.94,0-1.32-.53-1.71-41.41-1.71-41.41-1.06-1.32,1-3.83,1-3.83C9.37,88.62,11,91.79,11,91.79Zm19,42.72c17.93-.52,19.26-3.82,19.26-3.82.79-2.64-2.25,0-2.25,0-3,2.11-17,2.11-17,2.11m0,0s-14-.06-17-2.18c0,0-3-2.65-2.24,0,0,0,1.3,3.3,19.23,3.9"/>
<path id="plant1_leaves" class="cls-2" d="M13.52,86.45c0-.53-6.37-7.17-6.37-7.17-1.74-.35-2.58-7.57-2.58-7.57-1.53-3.56.65-2.07.65-2.07.74,1.18,8.11,3,8.11,3,2.17.35,2.52,20.18,2.52,20.18.59-3.46-.79-4.65-.79-4.65l.44.49c-.14-.15-1.22-1.06-2.63-2.23-3-2.48-7.46-6.12-7.46-6.12-2,.2-3-7-3-7,.34-.65-1.07-3.35-1.07-3.35C-2.5,81.5,8.18,88.62,8.18,88.62M19.4,93.48c1.46-2.39-1.59-15-1.59-15,1.19-4,0-9.14,0-9.14l-.92-5.1c-1.19-.4-3.17-12.79-3.17-12.79,2.11-4,.79-17.54.79-17.54C14.38,27.44,5,10.16,5,10.16s-.66,9.23-1.58,9.76c0,0-2.77,20.31,0,23.21S9.9,59.48,12.14,63l1.19,9.56M12.14,63c-2.51.27-8.44-8.57-8.44-8.57s2.17,10.3,9.06,13.59m.33-40.27c1.34-2.3-.33-8-.33-8-2-4,0-11.08,0-11.08s-3.32-.17-2.17,12.84m7.22,47.78C19.52,69.15,21.5,62,21.5,62c-2.63-1.06-3.29-9.5-3.29-9.5-2.11-9.49-3.33-7.78-3.33-7.78m11,48.77c-1.45-1.73,0-13.56,0-13.56,1.7-2.5-.78-13.45-.78-13.45A20.83,20.83,0,0,0,22.29,49.2,29.64,29.64,0,0,1,21.5,62m6.34,31.46c-.92-.84.65-17,.65-17-1.32-1.58.67-16.48.67-16.48-1.58-.53-.93-18-.93-18C27.3,41.55,24,31.53,24,31.53s-3.39,8.3-3.13,10.81c0,0-2.72,9.31-2.63,10.15M28.23,42c-.93-1.65,2.5-17.87,2.5-17.87-2,.92-2.77-10-2.77-10s-4.25,16.66-3.71,18.25M32.7,49.66c-.55,2.44-1.31,16.15-1.31,16.15,1.59,2.11.66,13.85.66,13.85m-2.89-5.8-.67,2.63Zm1.57,7.19s.54-6-1.57-7.19m4.22,19.31c-1.57-1.12.91-7.58.91-7.58A14.57,14.57,0,0,0,35.81,73.2S29,84.13,27.89,83.74m9.83,9.11s-.26-5,2.24-6.2c0,0,.83-5.94-3.41-10.16m1.74,3.17c-.74-.57,6.91-10.82,6.91-10.82,2.26,1.85,9.4-10.15,9.4-10.15-3.3,7.39-8.83,7.25-8.83,7.25-2.25-.66-10,7.26-10,7.26l1.39-1.86c4.21-8.19.52-29.33.52-29.33M66.36,64.07,65,64.1s-5.14-.65-10.42,4L41.28,78.47S38.79,79.63,39,80.24M45.2,90.87s-1.89-11.34-3.92-12.4m5.28,10.81S51.57,77,58,73.86c0,0,11-9.15,10.81-11.37,0,0-11.73,7.59-12.39,6.84,0,0-6.6,6.5-7.12,5.84,0,0-5.68,8.47-5.43,9.5m1.87-18.73c1.35-.23,4.35-13.18,4.35-13.18-.53-1.06.79-9.63.79-9.63-1.19-1.85-3.3-20.44-3.3-20.44S40.1,40.62,41.28,46.16c0,0-2,10.68-1.25,12.53,0,0-.4,9.28.69,10M42.5,67.3c2.81-5.49,2.89-36.43,2.89-36.43M42.58,77.45l-.52-4.25M40,92.65c2.57-1.91,1.25-12.41,1.25-12.41M21.5,90.87s.31-23.63,2.18-22.81c0,0,.72-14.8-.59-16.24m-16.68-39c-1.77,1.87,2.43,26,2.43,26,1.19,1.19,6,25.88,6,25.88A34.93,34.93,0,0,1,16,83.18m-.57,0S12.08,81.77,12,79.66c0,0-5.24-8.65-7.69-8.67M1.85,71c-1.6,2,1.32,9.25,1.32,9.25,2.14,1.49,12.66,11.68,12.66,11.68m10.8-72.4c.26,9.63,2.53,12.81,2.53,12.81m-.67,19.49s5.58-21.61,8.06-22.93c0,0,6.61-22.32,3.89-23.69M32.22,73.86S29.88,70,30,66.6c0,0,.9-5.8-.82-6.59-2.43-1.12,1.47-6.74,3.54-10.35a79.43,79.43,0,0,1,5-7.65c6.73-6.26,4.09-29.61,4.09-29.61.92-3.42.66-10.68.66-10.68S30.47,22,30.73,24.14m-7,25.52s1.39-15.23,0-16.16m1.38,33s3.8-5.8,2.83-8.44"/>
</svg>
