<svg id="plant8_SVG" xmlns="http://www.w3.org/2000/svg" viewBox="0 0 45.89 91.14">
  <defs>
    <style>

      .cls-1{fill:#231f20;}
      .cls-1,
      .cls-2{stroke:#231f20;stroke-miterlimit:10;}
      .cls-2{fill:none;}

      #plant8_leaves
      {
      	cursor: pointer;
      }

      #plant8_leaves:hover
      {
      	fill: #73b36d !important;
      }

      #plant8_leaves
      {
      	cursor: pointer;
      }

      #plant8_branch:hover
      {
      	fill: #73b36d !important;
      }

      #plant8_branch
      {
      	cursor: pointer;
      }

      #plant8_pot:hover
      {
      	fill: #4a3823 !important;
      }

    </style>
  </defs>
  <path id="plant8_pot" class="cls-1" d="M17.14,54.51c2.63,3.56,7.38-.13,7.38-.13H33c.26-.79,9.89-.66,9.89-.66,1.19,1.45,0,33.23,0,33.23C27,95.26,9.22,87,9.22,87c-4-11.34-4.74-33.23-4.74-33.23C4.61,54.38,17.14,54.51,17.14,54.51Z"/>
  <path id="plant8_branch" class="cls-1" d="M26.63,53.71V51.35c0-.73-6.33-3-6.33-3,1.05.66,4.22-.26,4.22-.26,3.57-1.53,2.11-2.64,2.11-2.64-.92.53-4-1.84-4-1.84-.13-1.59-3.83-2.64-3.83-2.64V38.16c2.49.66,3-2.77,3-2.77,1.06-1.85-2.9-5.8-3-6.2s.92-9.89.92-9.89c2.24,4.09,4.16,2,4.16,2-.2.79,1.12,2.64,1.12,2.64H23.38c-5.1,2.77-2.29,5.14-2.29,5.14,2.64,2.24,7.2,0,7.2,0v6.2c-2.17-1.19-4.36.92-4.36.92-1.78,5,4.68,4.22,4.68,4.22a14.77,14.77,0,0,0,1.05,4.35C27.42,49.37,28,52.66,28,52.66c.66.8,4.35-.65,4.35-.65L33,54.38Z"/>
  <path id="plant8_leaves" class="cls-2" d="M17.14,54.51s-3.57-2.9,0-4.88c0,0,7.51-.92,9.49,2.44a9.55,9.55,0,0,1-2.11,2.31M15.88,53C9.61,53,8,48.05,8,48.05c-.4.66-2-.4-2-.4a4.33,4.33,0,0,0-4.21-2.37c-1.19,7.25,4.21,8.8,4.21,8.8m11.09-4.45S9.91,47,8.77,40.93c0,0-3.9-1.72-.73,7.12m11.64-6.84a4.47,4.47,0,0,0-2.54-.42C16,43.32,16,45,16.34,46a3.19,3.19,0,0,0,2.5,2m-1.7-6.59c-1.71.52-4-3.83-4-3.83-1.19-2.24-4.41-2.5-4.41-2.5S6.25,45.17,16.34,46m2.51-16.85a25.25,25.25,0,0,1-9.47.7c-3.67-.55-4.9-2.15-4.9-2.15-5.15-5.41-3.83,0-3.83,0C4,35.65,18.84,38.16,18.84,38.16m0-11.61s-4.61-4.48-7.77-3.69c0,0-4.1-.66-2.58,3.69l.89,3.34m9.95-8.21c-1.86.47-5.83-9.5-5.83-9.5-.87-2.24-5-2.77-5-2.77-1.78-1.05-1.69.66-1.69.66-1,.13-1,5.67-1,5.67C9.88,26,19.33,23.39,19.33,23.39m.35-4.75s-.87-8.86,3.7-9.57c0,0,1.48-4.14-5.48-8.49,0,0-3.27-1-3.4,4.24,0,0-1.56,6-1,7.36m10.43,9.1s3.72-5.58,2.56-9.34a4.35,4.35,0,0,0-3.11-2.87m3.11,2.87c2.36-.23,3.83-6.09,3.83-6.09,3-4.61,5.41.66,5.41.66.62,4.42-1.53,8.66-4,11.91a34.53,34.53,0,0,1-5.85,6,3.66,3.66,0,0,1,2.39,4.62S38.5,27.3,44,14.2c0,0,2.24-5.45-3.43-1.62,0,0-6.52,7.34-8.86,5.84M28.29,31.75S39.55,31.3,41.93,27c0,0,7.12-4.27.92-4.18l-3.47-.89M28.29,35.26s7.41-1.48,6.9-4.5M28.61,40.4A6.13,6.13,0,0,0,34,38.89a7.35,7.35,0,0,0,1.26-1.39c2-2.18,2.46-4,2.35-5.24a3.74,3.74,0,0,0-.72-2M34,38.89c11.93,1.13,11.43-9,11.43-9v-.83S41.2,27.12,37.58,33M29.66,44.75S33.9,40,35.21,42.91A3.06,3.06,0,0,1,36,44.19a4.08,4.08,0,0,1,.17,1c.06,1.52-.67,3.79-3.83,6.82,0,0,4.71,2.5,7.37-1.72,0,0,3.87-8.17,0-10.81,0,0-2.11,6.14-2.83,5.73M37.58,47l2.76-3.56M34,47a3.33,3.33,0,0,0-.86-3.56m-11.21,1c-.45,1.59,2.05,1.71,2.05,1.71M12.81,49.67,14.23,51M6.8,50.31,8.16,52M12,39.48s1.21,3.16,2.26,3m1.32-8.64h3.78M6.8,30.29C6.67,31.31,12,33,12,33m-1.56-7.67c-.53,1,1.56,2.27,1.56,2.27m.59-8.31c-.08,1.32,3.56,2,3.56,2M7.48,12.44c-.43.53,1.9,4.62,1.9,4.62m8.06-8-.3-5.86m.3,9.76.46.79M21.09,18s2.64-3,2.84-4.22m2,6.53A4.28,4.28,0,0,0,29.66,18m2.08-4.22s2.19-3.43,1.9-6.06m-4,17.64,3.43-2.57m3.75-1.49s3.64-2.52,4.55-6.11M24.52,27.61a1.78,1.78,0,0,0,2.11-.79m8.58.44,3.9-.93M25.57,38.16c.27,1.32,5.28-1.32,5.28-1.32m6.73-.92,3.81-2.05M23.93,52.75l-.55,1"/>
</svg>
