<svg id="plant7_SVG" xmlns="http://www.w3.org/2000/svg" viewBox="0 0 63.61 79.21">
  <defs>
    <style>

      .cls-1{fill:#231f20;}
      .cls-1,
      .cls-2{stroke:#231f20;stroke-miterlimit:10;}
      .cls-2{fill:none;}

      #plant7_leaves
      {
      	cursor: pointer;
      }

      #plant7_leaves:hover
      {
      	fill: #73b36d !important;
      }

      #plant7_pot
      {
      	cursor: pointer;
      }

      #plant7_pot:hover
      {
      	fill: #e077e0 !important;
      }

    </style>
  </defs>
  <path id="plant7_pot" class="cls-1" d="M22.18,42.19l-3.42,2.64c-8.18,8.7,5,7.38,5,7.38,6.06-.79,11.86-10,11.86-10,0,6.33,6.6,6.07,6.6,6.07C48.82,48,47,40.87,47,40.87h3.69c1,2.11-1.59,33.5-1.59,33.5-16.35,9.76-34.54,0-34.54,0l-3.43-33.5C26.14,39.29,22.18,42.19,22.18,42.19Z"/>
  <path id="plant7_leaves" class="cls-2" d="M22.65,41.39l3.75-2.1M47,40.87c-1.19-1.45-4.88-2.11-4.88-2.11-5.41,0-6.47,3.43-6.47,3.43-1.43-4.11-9.23-2.9-9.23-2.9l-4.61-5.54c-1.45-2.24-10.68-3.82-10.68-3.82A18.42,18.42,0,0,0,1,32.7c-3,8.57,10.16,8.17,10.16,8.17m33-1.58c.2-1.84,6.78-5,6.78-5,8.42-1.58,8.85,1.77,8.85,1.77.66,3.75-9.1,4.82-9.1,4.82M31.19,39.29c1.21.13,3-6.2,3-6.2,3.83-5,.93-15.43.93-15.43.92-3,7.38-4.21,7.38-4.21,6.86-.53,8.43,6.06,8.43,6.06,1,5.8-7.37,10.4-7.37,10.4-6.6,6.45-5.45,9.7-5.45,9.7M21.79,33.75S13.88,20.51,17.3,13.42c0,0,6.45-14.09,12.93-5.91,0,0,5.27,6.07,4.88,10.15M30.23,7.51c1.18-3,7.65-2,7.65-2,5,1.19,4.61,7.92,4.61,7.92m8.43,6.06a16.29,16.29,0,0,1,4.74-2,9.9,9.9,0,0,1,5.42.05S66.39,22,59.8,28L52,34.1M37.88,5.53S43-.53,49.74.65c0,0,6.36-.13,7.27,10.69,0,0,.22,4.24-1.35,6.14M10.18,29.92S0,15.56,7.94,7.64c0,0,4.35-1.51,9.36,5.78m-9,3.71c-2.9-4.5-.53-6.45-.53-6.45m4,4.22,1.84,2.23m-.92,3.7,2.11,1.58m-4.62-.79M8.34,19.36m7.51,10.56c-1.18-.15-4.74-6.06-4.74-6.06m-.93,14.51c-6.46.92-7.25-2.32-7.25-2.32m8.84-1.11s7.51.09,9.89,2.35m-6.33,1.24c0-.89,6.33,0,6.33,0M20.47,21.62s5.88,7.91,5.32,9.76M24.53,14.9c.62,1.58,0,7.51,0,7.51M20.47,14.9V13.45M24.8,7s4.9,3.56,4.77,5.81m1.62,4.69s2.6,7.67.75,12.43m-.75,5v1.18m.71-3.29V31.38m-3.52,3.56c-1.32-3,0-11.87,0-11.87m1.19,17.8L25.82,44.3m6.78,0s-6,5-6.81,4.22m-5.32.93s-2.9,1.18-1.19-2m18.6-11.94s-.66-2,5.4-8m4.17-10.08c1.26.21,1,6.38,1,6.38m-10.57.66c.77-2.9,5.42-5.87,5.42-5.87m-2.71,7L37.88,29M48,28.08s6.28-5.14,6.54-4.22m4.09,2.64s-6.76,6.73-7.66,6.33m-3,0L42.5,37.29m9.47,2c-.55.79-4.52.32-4.52.32m2.26-2.25L52,36.12m5.82.62-2.38,1.4m-9.09,4.45a2.48,2.48,0,0,1-2.18,1.71m-3,0s-3.75.79-3.75-.85m5.15-2.06-1.93-1M35.13,10.68v2.74m0-7.23,2.73,2.24m2.71,3.62v.74m4.66-2.11,3.22-3.17m1.26-4.88S53.17,4,52.65,6.19m1.84,3.69a10.45,10.45,0,0,1-1.79,7.25"/></svg>
