<svg id="plant4_SVG" xmlns="http://www.w3.org/2000/svg" viewBox="0 0 66.44 157.29">
  <defs>
    <style>

      .cls-1{fill:#231f20;}
      .cls-1,
      .cls-2{stroke:#231f20;stroke-miterlimit:10;}
      .cls-2{fill:none;}

      #plant4_leaves
      {
      	cursor: pointer;
      }

      #plant4_leaves:hover
      {
      	fill: #73b36d !important;
      }

      #plant4_leaves
      {
      	cursor: pointer;
      }

      #plant4_leaves:hover
      {
      	fill: #73b36d !important;
      }

      #plant4_pot
      {
      	cursor: pointer;
      }

      #plant4_pot:hover
      {
      	fill: #125204 !important;
      }


    </style>
  </defs>

  <path id="plant4_pot" class="cls-1" d="M31.16,114.19v2.37c-23.48,2.37-9.76,7.38-9.76,7.38,16.35,4.22,24.79-1.58,24.79-1.58,6.59-5.8-11.61-5.54-11.61-5.54l.27-2.63c15.82,0,16.35,6.59,16.35,6.59l1.58,29.8c-16.61,14-38.77,0-38.77,0v-29.8C14,113.39,31.16,114.19,31.16,114.19ZM28,153.48a53.87,53.87,0,0,0,8.7.79,15.3,15.3,0,0,0,10-2.11,14.15,14.15,0,0,0,3.16-2.77c2.25-4.61-1.84-1.73-1.84-1.73-1.85,3.41-14.64,3.45-14.64,3.45-9.1-1.06-13.58-3.43-13.58-3.43a1.87,1.87,0,0,0-1.86.38,2,2,0,0,0,.27,2.79A54.69,54.69,0,0,0,28,153.48Z"/>
  <path id="plant4_branch" class="cls-1" d="M30.65,125.42a137.71,137.71,0,0,0,0-28.11s2.05,1.32,3.39,1a158.32,158.32,0,0,1,.82,27.06M30.65,86.1v3.82s2.42,2.38,4.43.85V88.36Zm.9-28V79.56L34,79.38V60s-1.31,1.32-1.18-1.85Z"/>
  <path id="plant4_leaves" class="cls-2" d="M37.49,88.47c-3,.66-6.84-2.37-6.84-2.37l-1.21-.79c-7-2.9-1.45-4.22-1.45-4.22.4-1.85,7.09-1.72,7.09-1.72,3.66.4,7.42-6.72,7.42-6.72C49,69.61,48,77.26,48,77.26c1.18,7.78-1.59,10.42-1.59,10.42a10.64,10.64,0,0,1-10,1.33c-2.5,4.76-5.78.91-5.78.91-4.86-3.56-10.31,4.49-10.31,4.49-1.05-.8-3.69,4.35-3.69,4.35-1.85,7.25.87,3.69.87,3.69a18.6,18.6,0,0,1,8.76-7.12c1.45,1.85,7.76,3,7.76,3,3.94,1.72,4.63-2.5,4.63-2.5A6,6,0,0,1,40,91.24V89.92M29.46,80c-1.36.32-5.56-2.84-5.56-2.84C22.19,74.5,16,72.52,16,72.52A4.08,4.08,0,0,1,13,71.94c-.53-1.77-7,1.89-7,1.89-1.58,6.6,6.46,8,6.46,8,13.06-.4,13.5.94,13.5.94m5.62-9.64L29.46,70.8a3.23,3.23,0,0,1-3.18-.66c0-1.32-3.3-3.56-3.3-3.56.4-1.32-2.11-3.1-2.11-3.1-4.35,1-4.86.07-4.86.07-8.43-.92-4.39,7.94-4.39,7.94m19.93,4.45C30.63,73.7,25,73.47,25,73.47c-1.19-1.56-3.86,0-3.86,0a1.92,1.92,0,0,0-2.62,0M34,68.85a6.58,6.58,0,0,1,7.14.9s7.25,3.68,10.42,1.71c0,0,6.46-3.82,4.61-7.25,0,0-.79-1.19.92-4.22,0,0-1.05-5-4.35-5,0,0-7.12-.66-7.91,2.63,0,0-3.82,2.38-3.69,3.83,0,0-3.83,2.63-4.49,2A20.6,20.6,0,0,0,34,65.79M34,60c9.87-9.76,15.31-9.36,15.31-9.36,2.25-2,5.28,0,5.28,0l5.8-.14c6.73.14,5.41-5,5.41-5-.93-.66-.93-3.69-.93-3.69-1.45.79-7.78-1-7.78-1a3.36,3.36,0,0,1-3.56.52c-4.22-.39-6.46,3.43-6.46,3.43-3.16-1.19-3.43,3.69-3.43,3.69-1.18-.79-2.77,1.12-2.77,1.12-.23,3.09-1.84,3.1-1.84,3.1-4.75,7.12-5.67,5.54-5.67,5.54-.64-1.84,2.9-7.25,2.9-7.25,3.3-.92,7-7.91,7-7.91,5.14-3.69-3.56-5.41-3.56-5.41a2.48,2.48,0,0,1-2.64,1.49c-3.43-.63-5.54,2.73-5.54,2.73a10.37,10.37,0,0,0-1.46,3.07,14.71,14.71,0,0,0,.56,8.8c1.21,3.16.9,4.48.9,4.48-1.19.79-2.64-5-2.64-5C29,46.93,25,45,25,45c-1.39.79-4.68-.53-5.2-1.19A5.72,5.72,0,0,0,16,41.39c-.12-1.31-2-.79-2-.79-.66-2.11-5.8-1.45-5.8-1.45-9.1,3-6.33,11.48-6.33,11.48-3.69,7.91,1.19,7.51,1.19,7.51,2.37,3.69,8.44,2.64,8.44,2.64,6.2,1.71,9.59-1.85,9.59-1.85,1-1.32,6.36-.79,6.36-.79,1.06,1.06,4.09,3.3,4.09,3.3M41.22,38c.44.13,5.36-2,5.36-2,6.47-8,1.06-7.65,1.06-7.65-4.62.79-4-1.58-4-1.58,1.45-2.77-2.5-4-2.5-4C39.6,20.56,32.47,26,32.86,26.1s6.08-4,6.08-4c-.4-1.05,11.86-6.2,11.86-6.2a2.43,2.43,0,0,1,1.45-2.63c4,.26,2.11-4.49,2.11-4.49,4.49-5-2.9-5-2.9-5-2.24,1.58-3.69.53-3.69.53-1.05-1.19-4.09,0-4.09,0-.26,1.19-2.37,1.85-2.37,1.85-3.69,2.11-3,4.08-3,4.08-3,.93-3.2,5.81-3.2,5.81-5.7,1.45-5.62,8-5.62,8,1.07-1.58,1-7.78,1-7.78,1.84-1.71-.4-4.22-.4-4.22,1.18-3.56-.63-4.75-.63-4.75-1.44.66-2.79-2-2.79-2C27.6,3,21.1,2.49,21.1,2.49,21.73-.28,14.67.65,14.67.65c-.92,1.58-3.43,1.45-3.43,1.45-4.74-1.19-2.5.79-2.5.79C25.35,13.57,28.39,29.53,28.39,29.53c-.53.79-5.15-3-5.15-3C22.58,22.27,16,20.3,16,20.3c-2.89-2.51-7.8-.53-7.8-.53s-4.09-1.06,0,2.24A9.18,9.18,0,0,0,14,24.25s7,6.46,2,4.09c0,0-1.57.43-6,3.56-.93.66-8.31-.66-1.32,2.11a16.92,16.92,0,0,0,11.73,5s6.6,1.85,6.86,4.48c0,0,2.57,2,2.76,1.36m-1.7-15.33C29.84,31.24,32.17,41,32.17,41s1.36-6.34,4.13-8.19m0-12.92c-2.11,2.24-5.65,6.33-5.65,6.33m6.57-9.89s2.11-.79,1.85-1.71C39.07,14.63,37.09,12.78,37.22,16.34Zm6.2-1.1s2.35.57,2.17-.61m1.79-.48a6.06,6.06,0,0,0,.95-2.29M28.39,25v-5.8m-4-5.09-.53-2.29M20.34,7.5l-.66-3.69m-3,1.32L15.46,3.81m6.2,27.83,2.24,1.84m2.9.93.53,1.45m2.13,7.25a5.45,5.45,0,0,0-2.13-4.62M10.65,20.56,14,22.14M14,49.5s-.72-7.57-1.68-8.49M6.89,43.9l2.38,3M6.89,49.5,5.05,46.93m.71,6.46s9.44.93,10.3,0m-6.79,4s3-.39,3.06-1.19m8.77.6c-.82-.86-6.3,2.17-6.3,2.17M39.09,35.27h2.75M36.3,41.79l-1.22,3.63m0,2.8s-3.93,4.65-2.22,7.94m8.19-11.73-2,2.5m-2.79,2-.61,1.58M59.9,43.11c-1.71-.26-4.09,3.82-4.09,3.82M46.19,66.32l2.14,2.53m4.32-1.27V65.26m-12.58,0A6.5,6.5,0,0,0,36,67.58M14,68.85l.79,1.42h1.85l3,.53m-7.35,5.14v1.2m14.15,4.61c.54-1.07-8-4.61-8-4.61m15.27,4.61A6.22,6.22,0,0,0,28,81.09m4.44,3.16,1.32-1.43m3.47,2,2.85-2m3.35-1.07S46.3,81,45.59,80m0,2.79v2M33.47,95.59c4,.13,3.75-4.74,3.75-4.74M28,91.9l1.47,1.32,0,1.71h2.07m-9.89.67"/>
</svg>
