<svg id="plant2_SVG" xmlns="http://www.w3.org/2000/svg" viewBox="0 0 99.45 154.34">
  <defs>
    <style>

      .cls-1 { fill: #231f20; }
      .cls-1,
      .cls-2 { stroke: #231f20; stroke-miterlimit: 10; }
      .cls-2 { fill: none; }

      #plant2_leaves
      {
      	cursor: pointer;
      }

      #plant2_leaves:hover
      {
      	fill: #73b36d !important;
      }

      #plant2_pot
      {
      	cursor: pointer;
      }

      #plant2_pot:hover
      {
      	fill: #ed9842 !important;
      }

    </style>
  </defs>

  <path id="plant2_pot" class="cls-1" d="M55.07,98.41h5.15c10.68.8,9.89,7.52,9.89,7.52v41.14c-21.56,15.23-42.53,0-42.53,0-1.39-1.18,0-42.13,0-42.13.23-7.91,16.61-6.53,16.61-6.53s2.18,5.35,1.39,6.14c0,0-9.1-.79-9.3,2.77,0,0,4.2.54,9.46.92,2.39.18,5,.32,7.55.36,4.47.07,8.69-.17,11.08-1.09,0,0,.4-2-5.74-3l-4.74-.4Zm-4.74,51c-6.14,2.37-20.18-4.16-20.18-4.16s-2.18-.86,1.19,2.34c0,0,13.45,5.18,19,3.4m-2.55,0c5.54,1.78,19-3.4,19-3.4,3.36-3.2,1.19-2.34,1.19-2.34s-14,6.53-20.18,4.16"/>
  <path id="plant2_leaves" class="cls-2" d="M53.29,108.6c-1.38-5.85,10.88-36.3,10.88-36.3M36.08,50.74s9,25.06,10.71,24.7m0-4.32L37.86,52.33m10.68,56.09a244.42,244.42,0,0,1,3.57-32c-1.59,0-1.78-25.72-1.78-25.72M69.18,38.88c-5.67,1.18-9.56,13.65-9.56,13.65,14.05.2,22-18.4,22-18.4,7.71-4.16,3.56-3.56,3.56-3.56C84,31.36,78.22,29,78.22,29c-5.74-2.38-16,6.92-16,6.92h0c.8,5.74-2.57,10.88-2.57,10.88-2.77,2.17-.94,5.54-.94,5.54s-6,21.09-6.57,24.13m8.7-23.14s-8.13,27.09-7.63,31.25c0,0-3.35,12.84-1.07,14.42M62.19,72.3,48.54,108.42C47.94,100.23,42,87.93,42,87.93c9.49-16-4.16-14.64-4.16-14.64s-8.7-7-14.63,6.29c0,0-.4,9.43,1.78,10.87,0,0,.2,7.38-.79,7.87,0,0,13.54-6,15.67-8.21,0,0,6.2,5.21,5.85,18.13M33.12,50c7.51,5.54,8.32,3.37,8.32,3.37-.39-2.58-7.53-6.73-7.53-6.73-5.1-12.06-12.66-12.86-12.66-12.86-1.39-4.35-9.3-3.56-9.3-3.56-.59-2-7.71-3-7.71-3l-3.56,3C9.78,42.83,33.12,50,33.12,50Zm13.67,50.18V50.74c3.39,1.78,14-7.91,14-7.91-.79-.59,1.38-6.92,1.38-6.92l2-6.13C67.53,18.7,46.79.7,46.79.7S30,19.49,30.94,24c0,0-3,23.47,17.6,26.37M78.63,68.35c1-2.77,11.06-5.26,11.06-5.26,2.37,2.06,8.9,1.1,8.9,1.1-3.36-4.94-17.21-4.35-17.21-4.35-23.93,5-22.7,11.28-22.7,11.28A16,16,0,0,0,78.63,68.35ZM46.79,10.19l.88,39m3.65-8.69,6.13-5.35m-6.13,2.67.79-1.68m4-4.55,2.62-1.88m-8.36.94,7.13-10.73m-3.07-5c-3.2,2.79-3.06,5-3.06,5m0-6.93h1.87l-1.87-2.77ZM39.64,14l3.06,3.93,2.48,3.19V17.41m-7.32,0,2.77,3.66m4.55,15-3.74-6.43M42.33,37l1,1.93m-26-1C9.73,29,3.84,30.62,3.84,30.62m6.73,7.29,4.94,2.56m7.69,2.76a19.34,19.34,0,0,0-3.73-2.76m5.74-1.59,1.75,3m2,2.76,1.83,2M19.47,35.12l1.59,2.67m43.48,2.57.82-2.57m7.71.12h2.38m2.17-2.79-1.38,1m1.38-4.55,2.18-.94M62.19,50.41c1.45.93,7-3.82,7-3.82m7.06,19-2,2.37m-1.19,2.18H70.12m0-2.18s-5.21,2-5.58,3.17m-2.35-1.58-1.38.59M36.08,74.48l-5.29,9.1m8.46-5.93.39-3.17-1.78,1.67Zm-3.17,1.93s-.59,7.56,1.78,8.15m-7.07-2.37a48.6,48.6,0,0,0,0,5.93c.25,1.19,2.65-.84,2.65-.84V83.66m-5.47,4-1,2.79m2,2.23-2,2.17"/>
</svg>
